<svg xmlns="http://www.w3.org/2000/svg" xmlns:xlink="http://www.w3.org/1999/xlink" id="Layer_2" data-name="Layer 2" viewBox="0 0 228.24 88.07"><defs><style>      .cls-1 {        fill: url(#radial-gradient);      }      .cls-1, .cls-2 {        stroke-width: 0px;      }      .cls-2 {        fill: #58595b;      }    </style><radialGradient id="radial-gradient" cx="-45.46" cy="128.3" fx="-45.46" fy="128.3" r="44.05" gradientTransform="translate(104.88 -75.9) rotate(8.13)" gradientUnits="userSpaceOnUse"><stop offset="0" stop-color="#e9d15e"></stop><stop offset=".22" stop-color="#e4cb5d"></stop><stop offset=".48" stop-color="#d6bd5b"></stop><stop offset=".76" stop-color="#bfa557"></stop><stop offset="1" stop-color="#a68a54"></stop></radialGradient></defs><g id="Layer_1-2" data-name="Layer 1"><g><g><path class="cls-1" d="m50.32,22.07c.34-2.37,2.54-4.02,4.91-3.68s4.02,2.54,3.68,4.91-2.54,4.02-4.91,3.68-4.02-2.54-3.68-4.91Zm11.37-5.37c2.12.3,4.08-1.17,4.39-3.29s-1.17-4.08-3.29-4.39c-2.12-.3-4.08,1.17-4.39,3.29s1.17,4.08,3.29,4.39Zm-12.21-1.74c2.12.3,4.08-1.17,4.39-3.29s-1.17-4.08-3.29-4.39-4.08,1.17-4.39,3.29,1.17,4.08,3.29,4.39Zm-11.99,2.21c2.12.3,4.08-1.17,4.39-3.29s-1.17-4.08-3.29-4.39-4.08,1.17-4.39,3.29c-.3,2.12,1.17,4.08,3.29,4.39Zm-11.09,5.72c2.12.3,4.08-1.17,4.39-3.29s-1.17-4.08-3.29-4.39-4.08,1.17-4.39,3.29c-.3,2.12,1.17,4.08,3.29,4.39Zm-11.87,4.47c-.3,2.12,1.17,4.08,3.29,4.39s4.08-1.17,4.39-3.29-1.17-4.08-3.29-4.39c-2.12-.3-4.08,1.17-4.39,3.29Zm-.67,32.11c-2.12-.3-4.08,1.17-4.39,3.29s1.17,4.08,3.29,4.39,4.08-1.17,4.39-3.29c.3-2.12-1.17-4.08-3.29-4.39Zm-3.28-4.46c2.12.3,4.08-1.17,4.39-3.29.3-2.12-1.17-4.08-3.29-4.39-2.12-.3-4.08,1.17-4.39,3.29-.3,2.12,1.17,4.08,3.29,4.39Zm1.75-12.25c2.12.3,4.08-1.17,4.39-3.29s-1.17-4.08-3.29-4.39c-2.12-.3-4.08,1.17-4.39,3.29-.3,2.12,1.17,4.08,3.29,4.39Zm69.38-11.98c2.12.3,4.08-1.17,4.39-3.29s-1.17-4.08-3.29-4.39-4.08,1.17-4.39,3.29,1.17,4.08,3.29,4.39Zm-62.07,39.51c-2.12-.3-4.08,1.17-4.39,3.29s1.17,4.08,3.29,4.39,4.08-1.17,4.39-3.29c.3-2.12-1.17-4.08-3.29-4.39Zm49.87-52.48c-.3,2.12,1.17,4.08,3.29,4.39s4.08-1.17,4.39-3.29-1.17-4.08-3.29-4.39-4.08,1.17-4.39,3.29ZM31.93,83.55c.3-2.12-1.17-4.08-3.29-4.39s-4.08,1.17-4.39,3.29,1.17,4.08,3.29,4.39,4.08-1.17,4.39-3.29Zm-8.46-32.42c-2.37-.34-4.57,1.31-4.91,3.68-.34,2.37,1.31,4.57,3.68,4.91,2.37.34,4.57-1.31,4.91-3.68s-1.31-4.57-3.68-4.91Zm6.12-12.18c.34-2.37-1.31-4.57-3.68-4.91s-4.57,1.31-4.91,3.68,1.31,4.57,3.68,4.91c2.37.34,4.57-1.31,4.91-3.68Zm2.06,27.42c-2.37-.34-4.57,1.31-4.91,3.68-.34,2.37,1.31,4.57,3.68,4.91,2.37.34,4.57-1.31,4.91-3.68s-1.31-4.57-3.68-4.91Zm38.01-31.57c2.37.34,4.57-1.31,4.91-3.68s-1.31-4.57-3.68-4.91c-2.37-.34-4.57,1.31-4.91,3.68s1.31,4.57,3.68,4.91Zm-31.6-13.28c-2.37-.34-4.57,1.31-4.91,3.68s1.31,4.57,3.68,4.91,4.57-1.31,4.91-3.68-1.31-4.57-3.68-4.91Zm-21.37,24.65c-.2,1.42.78,2.73,2.2,2.93s2.73-.78,2.93-2.2-.78-2.73-2.2-2.93-2.73.78-2.93,2.2Zm61.35-8.04c1.42.2,2.73-.78,2.93-2.2s-.78-2.73-2.2-2.93-2.73.78-2.93,2.2.78,2.73,2.2,2.93Zm-52.77-9.67c-.2,1.42.78,2.73,2.2,2.93s2.73-.78,2.93-2.2-.78-2.73-2.2-2.93-2.73.78-2.93,2.2Zm14.26,51.04c.2-1.42-.78-2.73-2.2-2.93s-2.73.78-2.93,2.2.78,2.73,2.2,2.93,2.73-.78,2.93-2.2Zm-16.4-16.27c-1.42-.2-2.73.78-2.93,2.2s.78,2.73,2.2,2.93,2.73-.78,2.93-2.2-.78-2.73-2.2-2.93Zm-15.04,7.47c-1.42-.2-2.73.78-2.93,2.2s.78,2.73,2.2,2.93,2.73-.78,2.93-2.2-.78-2.73-2.2-2.93Zm9.22,12.21c-1.42-.2-2.73.78-2.93,2.2s.78,2.73,2.2,2.93c1.42.2,2.73-.78,2.93-2.2s-.78-2.73-2.2-2.93ZM84.05,18.36c1.42.2,2.73-.78,2.93-2.2s-.78-2.73-2.2-2.93-2.73.78-2.93,2.2.78,2.73,2.2,2.93Zm-12.38-8.73c1.42.2,2.73-.78,2.93-2.2s-.78-2.73-2.2-2.93-2.73.78-2.93,2.2.78,2.73,2.2,2.93Zm-9.89,12.08c-.2,1.42.78,2.73,2.2,2.93s2.73-.78,2.93-2.2-.78-2.73-2.2-2.93-2.73.78-2.93,2.2Zm-4.66-16.55c1.42.2,2.73-.78,2.93-2.2S59.27.23,57.86.03s-2.73.78-2.93,2.2c-.2,1.42.78,2.73,2.2,2.93Zm-15.19.22c1.42.2,2.73-.78,2.93-2.2s-.78-2.73-2.2-2.93-2.73.78-2.93,2.2.78,2.73,2.2,2.93Zm2.62,16.72c1.42.2,2.73-.78,2.93-2.2s-.78-2.73-2.2-2.93-2.73.78-2.93,2.2c-.2,1.42.78,2.73,2.2,2.93Zm-16.9-11.82c1.42.2,2.73-.78,2.93-2.2s-.78-2.73-2.2-2.93-2.73.78-2.93,2.2.78,2.73,2.2,2.93Zm-12.31,9.13c1.42.2,2.73-.78,2.93-2.2s-.78-2.73-2.2-2.93-2.73.78-2.93,2.2.78,2.73,2.2,2.93Zm-7.91,7.18c-1.42-.2-2.73.78-2.93,2.2s.78,2.73,2.2,2.93,2.73-.78,2.93-2.2-.78-2.73-2.2-2.93Zm-2.26,17.51c.2-1.42-.78-2.73-2.2-2.93S.23,41.95.03,43.36s.78,2.73,2.2,2.93,2.73-.78,2.93-2.2Zm-2,12.24c-1.42-.2-2.73.78-2.93,2.2s.78,2.73,2.2,2.93,2.73-.78,2.93-2.2-.78-2.73-2.2-2.93Z"></path><g><path class="cls-2" d="m53.37,53c1.38,0,2.7-.09,3.06-.18.51-.12.93-.39,1.38-.93.33-.45.69-1.29.69-1.86,0-.21.09-.27.24-.27l.81.09c.15.03.27.06.24.24-.09.51-.09,2.07-.09,3.12,0,1.35.12,2.79.18,3.42.03.18-.09.21-.24.24l-.72.15c-.12.03-.18-.03-.24-.24-.12-.48-.42-1.17-.6-1.53-.33-.57-1.05-.96-1.65-1.05-.81-.12-1.74-.18-3.06-.18v1.8c0,1.62.15,4.53.15,5.07,0,1.56.33,2.1.72,2.28.45.18,1.02.27,2.52.27.51,0,1.77-.03,2.4-.09.6-.06,1.5-.36,2.28-.99.78-.63,2.46-2.49,3.06-3.21.12-.12.21-.15.3-.09l.51.3c.12.06.15.15.12.24l-1.35,4.53c-.09.27-.3.45-.66.45-.15,0-.81-.03-2.73-.06-1.95,0-5.13-.03-10.32-.03-1.11,0-1.95.03-2.55.03-.63.03-1.02.06-1.29.06-.21,0-.27-.09-.27-.33v-.63c0-.18.09-.27.3-.27h.9c1.38,0,1.5-.21,1.5-1.26v-10.05c0-2.49-.06-6.18-.09-6.48-.12-.96-.42-1.17-1.23-1.17h-1.17c-.12,0-.15-.09-.15-.3v-.72c0-.09.03-.21.21-.21.66,0,1.71.09,4.44.09l10.53-.03c.48,0,1.05-.06,1.2-.06s.21.06.24.15c.12.42,1.11,4.53,1.23,4.83.06.15.06.21-.09.3l-.48.24c-.12.06-.27.03-.36-.12-.15-.24-2.85-2.94-3.54-3.36-.63-.39-1.47-.78-2.28-.81l-3.96-.12-.09,8.73Z"></path><path class="cls-2" d="m74.4,60.56c.09,1.11.57,2.79,1.56,2.79h1.17c.18,0,.21.09.21.21v.81c0,.12-.03.21-.27.21-.33,0-1.14-.09-3.33-.09-2.55,0-3.6.09-3.87.09-.24,0-.27-.03-.27-.27v-.78c0-.09.03-.18.18-.18h1.23c.96,0,1.32-1.38,1.44-2.34.27-2.13.54-9.21.54-9.75l-.03-4.59c0-1.38-.3-2.28-1.65-2.28h-.99c-.18,0-.21-.09-.21-.21v-.84c0-.09.03-.18.21-.18.3,0,1.11.09,4.65.09,1.41,0,2.34-.09,2.7-.09.3,0,.54.03.72.51,1.92,5.1,4.08,10.08,5.76,14.58.33-.57,2.61-6.15,2.79-6.57.12-.3,3.12-7.47,3.27-8.07.09-.33.48-.36,1.38-.36,4.68,0,5.7-.09,6.03-.09.15,0,.18.09.18.27v.69c0,.18-.03.27-.24.27h-1.32c-.69,0-.78.54-.78,1.17,0,.45.03,7.83.06,8.46,0,.6.09,7.17.09,7.71,0,1.14.27,1.62.69,1.62h1.44c.18,0,.21.09.21.21v.75c0,.18-.03.27-.27.27-.36,0-.9-.09-4.44-.09-3.06,0-4.23.09-4.62.09-.21,0-.24-.09-.24-.27v-.75c0-.15.03-.21.24-.21h1.68c.51,0,.78-.18.84-1.02.03-.36.12-5.82.12-7.92v-9.15h-.18c-.3.51-3.66,8.67-4.2,9.9-.63,1.38-3.3,8.04-3.45,8.31-.15.24-.36.69-.72.69-.21,0-.39-.21-.54-.54-.09-.21-4.05-9.51-4.26-10.05-.54-1.38-3.3-8.1-3.54-8.46-.12.42-.18,8.01-.18,8.37s.03,4.44.21,7.08Z"></path><path class="cls-2" d="m108.69,62.99c-2.13-1.29-4.41-4.53-4.41-8.91,0-1.83.48-4.68,2.79-7.47,2.64-3.21,6.03-3.81,8.73-3.81,2.49,0,4.8.39,7.32,2.37,2.28,1.8,4.11,4.83,4.11,8.97,0,2.19-.69,4.47-2.25,6.57-1.95,2.43-4.5,4.23-9.24,4.23-2.07,0-4.68-.48-7.05-1.95Zm13.83-8.61c0-6.57-4.32-10.17-6.84-10.17-.6,0-2.1-.15-3.93,1.62-1.77,1.68-2.67,4.83-2.67,7.29,0,7.68,4.41,10.41,6.9,10.41,5.55,0,6.54-6.69,6.54-9.15Z"></path><path class="cls-2" d="m136.23,50.84c0-2.22,0-4.14-.03-4.95-.03-.99-.42-1.5-.84-1.5h-1.2c-.15,0-.18-.09-.18-.21v-.81c0-.15.03-.21.18-.21.27,0,1.2.09,4.47.09,1.68,0,4.32-.09,5.55-.09,2.34,0,4.08.84,5.31,1.98,1.08.99,1.71,2.16,1.71,3.27,0,3.81-2.85,5.52-5.49,5.76v.21c.93.3,1.41.87,1.98,1.59.39.48,2.04,3.15,2.28,3.51.18.27,1.8,2.55,2.4,3.24.36.39,1.5.63,2.19.63.21,0,.24.12.24.24v.72c0,.18-.03.27-.24.27-.24,0-1.02-.09-3.33-.09-.87,0-1.98.06-2.85.09-.9-.69-2.76-4.17-3.27-5.19-1.02-2.04-2.25-4.26-3.69-4.26h-1.02v1.53c0,1.77.09,5.13.15,5.52.06.63.3,1.17.75,1.17h1.23c.21,0,.24.09.24.24v.72c0,.21-.03.27-.48.27-.03,0-.78-.09-3.93-.09s-3.87.09-4.2.09c-.24,0-.24-.09-.24-.3v-.69c0-.15,0-.24.15-.24h.9c.66,0,1.2-.21,1.2-.96.06-2.97.06-5.79.06-8.64v-2.91Zm4.2,3.24c.57.03.93.03,1.2.03,3.96,0,4.89-3.78,4.89-5.19s-.48-2.7-1.14-3.36c-1.08-.96-2.43-1.32-3.33-1.32-.51,0-.9.06-1.14.27-.18.12-.27.45-.33.81l-.15,8.76Z"></path><path class="cls-2" d="m168.75,58.91c0,1.17.09,3.12.12,3.39.09.96.54,1.05,1.02,1.05h.87c.21,0,.21.09.21.21v.75c0,.18,0,.27-.21.27-.36,0-1.53-.09-4.35-.09-3.12,0-4.05.09-4.38.09-.12,0-.18-.09-.18-.3v-.72c0-.12.03-.21.21-.21h1.05c.78,0,1.02-.3,1.05-.69.03-.42.09-2.79.09-5.58v-1.29c-.48-.93-5.28-9.69-6.03-10.71-.36-.45-1.08-.69-1.56-.69h-.45c-.18,0-.21-.09-.21-.21v-.84c0-.12.03-.18.21-.18.27,0,1.68.09,4.35.09,3.09,0,4.17-.09,4.47-.09.18,0,.21.06.21.21v.75c0,.15-.03.27-.21.27h-.69c-.42,0-.72.3-.72.78,0,.54,3.57,7.41,4.38,9.15.9-1.65,4.5-7.98,4.5-8.91,0-.51-.51-1.02-1.14-1.02h-.81c-.18,0-.21-.09-.21-.27v-.78c0-.12.03-.18.21-.18.3,0,1.53.09,3.75.09,2.07,0,2.73-.09,3-.09.21,0,.24.06.24.24v.72c0,.18-.03.27-.24.27h-.54c-.36,0-1.26.18-1.71.72-.39.48-5.07,8.16-6.3,10.47v3.33Z"></path></g><g><path class="cls-2" d="m48.38,86.26c-.29-.22-.44-.29-.56-.29-.15,0-.24.17-.39.41-.15.27-.27.29-.44.29-.15,0-.27-.12-.22-.39.1-.61.34-3.7.41-4.4.02-.15.07-.15.17-.15l.36.02c.1,0,.15.05.15.19.02.78.07,1.58.88,2.82.73,1.14,2.07,1.8,3.41,1.8,1.46,0,3.31-.9,3.31-3.09,0-2.5-1.8-3.43-3.75-4.11-.75-.27-2.5-.88-3.55-1.97-.8-.8-1.22-1.95-1.22-3.55,0-1.22.75-2.41,1.51-3.11.88-.83,2.09-1.17,3.41-1.17,1.39,0,2.46.41,2.87.61.22.12.34.1.46-.02l.32-.29c.12-.1.19-.15.32-.15s.19.19.19.41c0,.85.32,3.33.34,3.87,0,.12-.02.17-.12.19l-.29.07c-.07.02-.12,0-.15-.07-.19-.71-.51-1.65-1.51-2.7-.66-.71-1.51-1.05-2.65-1.05-2.16,0-2.94,1.61-2.94,2.85,0,.68.15,1.48.75,2.12.71.71,2.07,1.24,2.77,1.46,1.68.54,3.04.95,3.92,2.02.63.75,1.07,1.7,1.07,3.31,0,2.87-1.75,5.33-4.96,5.33-1.7,0-2.89-.51-3.87-1.27Z"></path><path class="cls-2" d="m66.26,85.95c-1.73-1.05-3.58-3.67-3.58-7.22,0-1.48.39-3.79,2.26-6.06,2.14-2.6,4.55-3.09,6.59-3.09,1.53,0,3.53.32,5.45,1.92,1.78,1.53,3.33,3.92,3.33,7.27,0,1.78-.56,3.62-1.82,5.33-1.48,1.97-3.65,3.43-7,3.43-1.19,0-3.31-.39-5.23-1.58Zm11.67-6.98c0-5.33-3.79-8.46-6.49-8.46-.36,0-2.02-.29-3.84,1.44-1.63,1.56-2.43,4.01-2.43,6.01,0,6.4,4.45,8.66,6.52,8.66,5.35,0,6.25-5.47,6.25-7.64Z"></path><path class="cls-2" d="m87.92,76.27c0-1.56-.05-4.13-.07-4.57-.05-.63-.17-.88-.9-.88h-1.14c-.15,0-.17-.12-.17-.24v-.54c0-.12.02-.17.17-.17.27,0,1.14.07,3.16.07,2.36,0,3.38-.07,3.6-.07.19,0,.22.07.22.19v.56c0,.12-.05.19-.24.19h-1.46c-.75,0-.85.24-.85.95,0,.32-.07,3.99-.07,5.69v2.09c0,.41,0,5.67.07,6.67.54.05,5.35.1,6.1,0,1.44-.22,2.89-3.14,3.23-4.09.05-.1.1-.15.19-.1l.39.15c.07.05.07.07.05.22-.07.17-1.05,4.18-1.19,4.84-.32-.02-2.21-.05-4.38-.05-2.16-.02-4.55-.02-5.86-.02-.95,0-1.65.02-2.16.02-.49.02-.78.05-.95.05s-.19-.05-.19-.17v-.61c0-.12.02-.17.17-.17h1.17c.9,0,1.05-.34,1.05-.66,0-.46.07-6.52.07-8v-1.36Z"></path><path class="cls-2" d="m108.93,87.02c-1.65-.66-2.5-1.73-2.89-3.26-.29-1.09-.39-2.72-.39-5.91v-5.79c0-.85-.17-1.24-.92-1.24h-1.14c-.15,0-.17-.05-.17-.22v-.54c0-.15.02-.19.22-.19.24,0,1.43.07,3.33.07s3.06-.07,3.33-.07c.19,0,.22.05.22.15v.63c0,.12-.02.17-.19.17h-1.22c-.71,0-1.12.46-1.17,1-.02.22-.05,1.92-.05,3.16v1.61c0,1.29.1,4.38.12,5.16.02,1.12.22,2.26.78,3.09.9,1.31,2.46,1.75,3.87,1.75s2.8-.46,3.65-1.34c.95-1.02,1.26-2.48,1.26-4.28v-5.21c0-1.85-.05-3.26-.12-3.87-.07-.63-.46-1.07-1.09-1.07h-1.07c-.15,0-.17-.07-.17-.19v-.58c0-.12.02-.17.17-.17.24,0,1.36.07,2.99.07s2.46-.07,2.68-.07.24.1.24.17v.54c0,.15-.02.24-.15.24h-1c-.9,0-.97.68-1.05.97-.05.24-.05,3.7-.05,4.04s-.05,4.6-.12,5.54c-.15,2-.68,3.53-2.04,4.69-.97.9-2.46,1.46-4.57,1.46-1.26,0-2.48-.17-3.28-.51Z"></path><path class="cls-2" d="m132.59,70.82h-.61c-.78,0-2.89,0-3.84.29-1.09.34-1.82,2.04-2.16,2.82-.05.12-.12.15-.24.12l-.44-.12c-.07-.02-.15-.05-.1-.19.24-.88,1.09-4.01,1.14-4.28.05-.32.15-.39.24-.39.12,0,.2.02.29.1l.32.22c.44.32.68.39,1.39.41,1.29.05,2.31.15,4.6.15h1.17c2.65,0,3.7-.1,4.89-.15.54-.02.85-.1,1.26-.34l.46-.29c.12-.07.19-.1.29-.1.12,0,.17.07.22.39.05.29.51,3.31.71,4.38.02.12-.02.17-.15.2l-.39.1c-.1.02-.12,0-.19-.17-.19-.46-.92-2.33-1.73-2.72-.73-.36-3.02-.41-4.21-.41h-.68v6.93c0,.34,0,7.15.02,7.56.05.61.24.97.83.97h1.53c.22,0,.24.07.24.24v.51c0,.12-.02.2-.24.2-.24,0-1.02-.07-3.41-.07s-3.36.07-3.7.07c-.2,0-.22-.1-.22-.24v-.46c0-.17.02-.24.17-.24h1.65c.49,0,.78-.29.8-.58.07-.71.07-8.17.07-8.63v-6.25Z"></path><path class="cls-2" d="m149.13,76.97c0-.58-.07-4.96-.1-5.33-.05-.58-.29-.83-1.22-.83h-1.41c-.12,0-.19-.05-.19-.15v-.66c0-.1.07-.15.17-.15.29,0,1.53.07,3.79.07s2.94-.07,3.28-.07c.12,0,.17.07.17.17v.61c0,.12-.07.17-.2.17h-1.14c-.49,0-.85.19-.85.68,0,.24-.07,5.62-.07,5.91v1.87c0,.24.07,5.86.07,6.13,0,.75.37.88,1.14.88h1c.12,0,.19.05.19.17v.63c0,.1-.07.15-.22.15-.29,0-1.26-.07-3.38-.07-2.31,0-3.36.07-3.62.07-.12,0-.19-.05-.19-.15v-.66c0-.1.07-.15.19-.15h1.36c.49,0,1-.07,1.09-.71.05-.37.12-5.62.12-6.91v-1.7Z"></path><path class="cls-2" d="m162.52,85.95c-1.73-1.05-3.58-3.67-3.58-7.22,0-1.48.39-3.79,2.26-6.06,2.14-2.6,4.55-3.09,6.59-3.09,1.53,0,3.53.32,5.45,1.92,1.78,1.53,3.33,3.92,3.33,7.27,0,1.78-.56,3.62-1.82,5.33-1.48,1.97-3.65,3.43-7,3.43-1.19,0-3.31-.39-5.23-1.58Zm11.67-6.98c0-5.33-3.79-8.46-6.49-8.46-.37,0-2.02-.29-3.84,1.44-1.63,1.56-2.43,4.01-2.43,6.01,0,6.4,4.45,8.66,6.52,8.66,5.35,0,6.25-5.47,6.25-7.64Z"></path><path class="cls-2" d="m184.07,73.1c0-1.43-.73-2.24-1.6-2.26l-1-.02c-.12,0-.15-.1-.15-.17v-.63c0-.1.02-.15.15-.15s.32.02.68.02c.36.02.9.05,1.73.05s1.34-.05,1.63-.05c.32,0,.51.1.71.32l5.11,6.62c.27.34,4.38,5.38,4.96,6.15h.1v-2.89c0-2.16-.02-3.36-.07-4.57-.02-.95-.15-3.33-.29-3.75-.19-.61-.66-.95-1.34-.95h-.78c-.1,0-.15-.05-.15-.17v-.63c0-.1.05-.15.15-.15.34,0,1.12.07,2.68.07,1.46,0,2.04-.07,2.36-.07.17,0,.19.07.19.17v.61c0,.1-.05.17-.15.17h-.66c-.66,0-.9.41-.95,1.34-.1,1.63-.1,4.04-.1,5.62v9.1c0,.34-.02.58-.12.58-.29,0-.51-.29-.58-.39l-2.97-3.75c-1.7-2.12-3.48-4.35-3.62-4.5-.27-.24-4.74-5.86-4.89-6.06h-.15v5.4c0,2.26.19,6.23.24,6.71.1.95.24,1.41.9,1.41h.73c.17,0,.19.07.19.22v.53c0,.15-.02.2-.19.2-.24,0-1.7-.07-2.36-.07-.51,0-2.19.07-2.43.07-.1,0-.12-.05-.12-.17v-.63c0-.07.02-.15.15-.15h.83c.71,0,.97-.29,1.09-1.48.05-.46.1-3.23.1-7.56v-4.13Z"></path><path class="cls-2" d="m206.39,86.26c-.29-.22-.44-.29-.56-.29-.15,0-.24.17-.39.41-.15.27-.27.29-.44.29-.15,0-.27-.12-.22-.39.1-.61.34-3.7.41-4.4.02-.15.07-.15.17-.15l.37.02c.1,0,.15.05.15.19.02.78.07,1.58.88,2.82.73,1.14,2.07,1.8,3.41,1.8,1.46,0,3.31-.9,3.31-3.09,0-2.5-1.8-3.43-3.75-4.11-.75-.27-2.51-.88-3.55-1.97-.8-.8-1.22-1.95-1.22-3.55,0-1.22.75-2.41,1.51-3.11.88-.83,2.09-1.17,3.41-1.17,1.39,0,2.46.41,2.87.61.22.12.34.1.46-.02l.32-.29c.12-.1.19-.15.32-.15s.19.19.19.41c0,.85.32,3.33.34,3.87,0,.12-.02.17-.12.19l-.29.07c-.07.02-.12,0-.15-.07-.19-.71-.51-1.65-1.51-2.7-.66-.71-1.51-1.05-2.65-1.05-2.17,0-2.94,1.61-2.94,2.85,0,.68.15,1.48.75,2.12.71.71,2.07,1.24,2.77,1.46,1.68.54,3.04.95,3.92,2.02.63.75,1.07,1.7,1.07,3.31,0,2.87-1.75,5.33-4.96,5.33-1.7,0-2.89-.51-3.87-1.27Z"></path></g></g><g><path class="cls-2" d="m220.08,70.76h-1.61v-.58h3.92v.58h-1.62v4.71h-.69v-4.71Z"></path><path class="cls-2" d="m227.44,73.15c-.04-.74-.09-1.63-.08-2.29h-.02c-.18.62-.4,1.28-.67,2.01l-.94,2.57h-.52l-.86-2.52c-.25-.75-.46-1.43-.61-2.06h-.02c-.02.66-.05,1.55-.1,2.34l-.14,2.27h-.65l.37-5.3h.87l.9,2.56c.22.65.4,1.23.53,1.78h.02c.13-.53.32-1.12.56-1.78l.94-2.56h.87l.33,5.3h-.67l-.13-2.33Z"></path></g></g></g></svg>